<svg width="60" height="60" viewBox="0 0 60 60" fill="none" xmlns="http://www.w3.org/2000/svg">
<circle r="29" transform="matrix(-1 0 0 1 30 30)" fill="#F53838" stroke="#F53838" stroke-width="2"/>
<path d="M39.75 28.75H24.925L29.4625 23.3C29.6747 23.0447 29.7768 22.7156 29.7463 22.3851C29.7158 22.0545 29.5553 21.7497 29.3 21.5375C29.0447 21.3253 28.7156 21.2232 28.3851 21.2537C28.0546 21.2842 27.7497 21.4447 27.5375 21.7L21.2875 29.2C21.2455 29.2596 21.2079 29.3223 21.175 29.3875C21.175 29.45 21.175 29.4875 21.0875 29.55C21.0309 29.6933 21.0012 29.8459 21 30C21.0012 30.1541 21.0309 30.3067 21.0875 30.45C21.0875 30.5125 21.0875 30.55 21.175 30.6125C21.2079 30.6777 21.2455 30.7403 21.2875 30.8L27.5375 38.3C27.655 38.4411 27.8022 38.5546 27.9686 38.6323C28.1349 38.7101 28.3164 38.7503 28.5 38.75C28.7921 38.7505 29.0751 38.6488 29.3 38.4625C29.4266 38.3575 29.5312 38.2287 29.6079 38.0832C29.6846 37.9378 29.7318 37.7787 29.7469 37.6149C29.762 37.4512 29.7447 37.2861 29.6959 37.1291C29.6471 36.9721 29.5678 36.8263 29.4625 36.7L24.925 31.25H39.75C40.0815 31.25 40.3995 31.1183 40.6339 30.8839C40.8683 30.6494 41 30.3315 41 30C41 29.6685 40.8683 29.3505 40.6339 29.1161C40.3995 28.8817 40.0815 28.75 39.75 28.75Z" fill="white"/>
</svg>
