<svg width="25" height="25" viewBox="0 0 25 25" fill="none" xmlns="http://www.w3.org/2000/svg">
<path d="M11.3961 17.2795C11.2649 17.2798 11.1349 17.2542 11.0135 17.204C10.8922 17.1539 10.782 17.0804 10.6891 16.9875L6.44714 12.7445C6.35157 12.6524 6.27531 12.5421 6.22282 12.4201C6.17033 12.2981 6.14265 12.1669 6.1414 12.0342C6.14015 11.9014 6.16536 11.7697 6.21556 11.6468C6.26575 11.5238 6.33993 11.4121 6.43375 11.3182C6.52758 11.2242 6.63917 11.1499 6.76203 11.0995C6.88489 11.0491 7.01655 11.0237 7.14933 11.0248C7.28211 11.0259 7.41335 11.0534 7.53539 11.1057C7.65743 11.158 7.76783 11.2341 7.86014 11.3295L11.3951 14.8645L17.7601 8.50155C17.9477 8.31391 18.202 8.20844 18.4673 8.20834C18.7326 8.20825 18.987 8.31354 19.1746 8.50105C19.3623 8.68855 19.4678 8.94292 19.4678 9.20819C19.4679 9.47346 19.3627 9.72791 19.1751 9.91555L12.1031 16.9875C12.0103 17.0804 11.9001 17.1539 11.7788 17.204C11.6574 17.2542 11.5274 17.2798 11.3961 17.2795Z" fill="#2FAB73"/>
</svg>
