<svg width="60" height="60" viewBox="0 0 60 60" fill="none" xmlns="http://www.w3.org/2000/svg">
<circle cx="30" cy="30" r="29" fill="#F53838" stroke="#F53838" stroke-width="2"/>
<path d="M20.25 28.75H35.075L30.5375 23.3C30.3253 23.0447 30.2232 22.7156 30.2537 22.3851C30.2842 22.0545 30.4447 21.7497 30.7 21.5375C30.9553 21.3253 31.2844 21.2232 31.6149 21.2537C31.9454 21.2842 32.2503 21.4447 32.4625 21.7L38.7125 29.2C38.7545 29.2596 38.7921 29.3223 38.825 29.3875C38.825 29.45 38.825 29.4875 38.9125 29.55C38.9691 29.6933 38.9988 29.8459 39 30C38.9988 30.1541 38.9691 30.3067 38.9125 30.45C38.9125 30.5125 38.9125 30.55 38.825 30.6125C38.7921 30.6777 38.7545 30.7403 38.7125 30.8L32.4625 38.3C32.345 38.4411 32.1978 38.5546 32.0314 38.6323C31.8651 38.7101 31.6836 38.7503 31.5 38.75C31.2079 38.7505 30.9249 38.6488 30.7 38.4625C30.5734 38.3575 30.4688 38.2287 30.3921 38.0832C30.3154 37.9378 30.2682 37.7787 30.2531 37.6149C30.238 37.4512 30.2553 37.2861 30.3041 37.1291C30.3529 36.9721 30.4322 36.8263 30.5375 36.7L35.075 31.25H20.25C19.9185 31.25 19.6005 31.1183 19.3661 30.8839C19.1317 30.6494 19 30.3315 19 30C19 29.6685 19.1317 29.3505 19.3661 29.1161C19.6005 28.8817 19.9185 28.75 20.25 28.75Z" fill="white"/>
</svg>
